<svg fill="#3490de">
  <path xmlns="http://www.w3.org/2000/svg" d="M97.73,43l-.29-9.36a10.66,10.66,0,0,0-.1-1.27A7.12,7.12,0,0,0,97,31.08a6.85,6.85,0,0,0-5.32-4.44,1.17,1.17,0,0,0-1.36,1.3,1.44,1.44,0,0,0,.82,1.32,4.18,4.18,0,0,1,2.22,1.52A3.93,3.93,0,0,1,94,32.08a4,4,0,0,1,.12.72,8,8,0,0,1,0,.86L93.83,43c0,.76,0,1.53-.06,2.31a120.65,120.65,0,0,0-17.71-1.17c1-4,.91-11.08-.37-14.44,5.17-.15,9.74-.32,13.52-.5a1.32,1.32,0,0,0,1.13-1.47,1.28,1.28,0,0,0-1.13-1.28c-3.85-.19-8.52-.36-13.82-.51.05-.76.11-1.54.15-2.4a19.47,19.47,0,0,0-.12-3,18.85,18.85,0,0,0-2.09-6.65A19.66,19.66,0,0,0,60,3.94a20.61,20.61,0,0,0-9.68.37,20.39,20.39,0,0,0-8.78,5.3,21.12,21.12,0,0,0-3.19,4.26,20.37,20.37,0,0,0-2,5,22.32,22.32,0,0,0-.49,2.68l-.08,1.36c0,.46,0,.91,0,1.29q0,2.37,0,4.75v2.38a11.54,11.54,0,0,1-.15,1.89,9.54,9.54,0,0,1-1.29,3.41A9.71,9.71,0,0,1,21.76,40.2a10.07,10.07,0,0,1-4.62-4.88,9.65,9.65,0,0,1-.79-3.18c-.06-.49-.06-1.22-.08-1.85l-.05-1.93L16,21.11c-.18-4.55-.38-8.5-.61-11.65,0-.44-.68-.78-1.44-.74s-1.21.35-1.24.74c-.23,3.15-.44,7.1-.61,11.65l-.24,7.24-.05,1.93c0,.67-.05,1.26,0,2.1a14.1,14.1,0,0,0,1,4.74,14.82,14.82,0,0,0,28.36-2.94,17.08,17.08,0,0,0,.24-2.83V29q0-2.38,0-4.75c0-.42,0-.76,0-1.08l0-1a17.32,17.32,0,0,1,.35-2,15.25,15.25,0,0,1,1.39-3.7,16.12,16.12,0,0,1,2.3-3.18,15.54,15.54,0,0,1,6.42-4.09,16.13,16.13,0,0,1,7.3-.53,15.94,15.94,0,0,1,10.77,7.17,16.49,16.49,0,0,1,2.16,5.23,18.62,18.62,0,0,1,.39,2.51l.16,2.3-.59,0-10.68-.24-2.85-.05h-.72c-.26,0-.66,0-1,0a7.94,7.94,0,0,0-2,.49,7.83,7.83,0,0,0-4.91,6.55l0,.55v1.18l0,1.55,0,3.14-.07,6.43-.11,13.32,0,6.84c0,1.17,0,2.25,0,3.5l.09,1.94c.08.64.18,1.29.28,1.93a24,24,0,0,0,7.4,13.57A24.42,24.42,0,0,0,71.38,93a26.41,26.41,0,0,0,7.73-.43,24.79,24.79,0,0,0,7.12-2.8A23.38,23.38,0,0,0,92,85a24,24,0,0,0,6-13l.12-.87,0-.87.06-1.73,0-3.09C98.06,57.31,97.91,49.72,97.73,43ZM54.66,33a3.11,3.11,0,0,1,1.85-2.65,3.37,3.37,0,0,1,.81-.23l.47,0h.72l2.85-.05L72,29.82h.26C71,33.21,70.93,40.17,72,44.16a126,126,0,0,0-17.18,1.11ZM93.39,65.48l0,3.09L93.26,70l0,.7-.12.69a19.36,19.36,0,0,1-9.53,13.85A19.68,19.68,0,0,1,78,87.33a21.3,21.3,0,0,1-6,.28,19.14,19.14,0,0,1-10.9-5,19.82,19.82,0,0,1-3.76-4.8,20.08,20.08,0,0,1-2-5.72l-.23-1.5L55,69.05c0-1,0-2.27,0-3.4l0-6.84-.1-10.29C63.88,50,85.08,50,93.7,48.48,93.58,53.75,93.48,59.45,93.39,65.48Z">
  </path>
  <path xmlns="http://www.w3.org/2000/svg" d="M5.62,52.1l.39,0,.23,0a2.19,2.19,0,0,1,.81.39,2,2,0,0,1,.81,1.55L7.7,57.85c-.24,5.64-.35,12.09-.36,18.54v1.84c0,.3,0,.6.06.9a8.09,8.09,0,0,0,7.06,7,7.37,7.37,0,0,0,.87.06H16l1.16,0,2.27-.06L23.77,86c5.64-.23,10.47-.57,13.68-1,.23,0,.4-.7.39-1.47s-.18-1.25-.39-1.28c-3.21-.46-8-.81-13.68-1l-8.62-.29a2.77,2.77,0,0,1-2.3-2.41c0-.1,0-.2,0-.3V76.39q0-.82,0-1.64c3.91.46,9.52.79,15.89,1l5.49.14h.7c.26,0,.38,0,.88,0a6.09,6.09,0,0,0,5.55-4.56,5.82,5.82,0,0,0,.19-1.28V64.87l0-5.77v0h0a2.69,2.69,0,0,0-2.71-2.66c-10.7.11-20.52.51-26.36,1.2l-.08-1.8-.05-1a9.18,9.18,0,0,0-.13-1.31A6.05,6.05,0,0,0,9,49.16a5.75,5.75,0,0,0-2.37-.6H6l-.39,0-.76.08c-1,.1-1.9.21-2.7.33-.22,0-.4.68-.38,1.44s.18,1.21.38,1.24c.8.12,1.71.23,2.7.33ZM36.1,61.78c0,1,0,2.06,0,3.09V69.6c0,.12,0,.27,0,.26a.5.5,0,0,1,0,.15.74.74,0,0,1-.34.48.76.76,0,0,1-.29.1s-.32,0-.53,0h-.7l-5.49.14c-6.38.21-12,.54-15.91,1,0-3.84-.11-7.6-.23-11.12C17.93,61.25,26.54,61.63,36.1,61.78Z">
  </path>
  <circle xmlns="http://www.w3.org/2000/svg" cx="17.17" cy="93.11" r="3.36">
  </circle>
  <circle xmlns="http://www.w3.org/2000/svg" cx="30.86" cy="93.11" r="3.36">
  </circle>
</svg>