<svg width="507.00000000000006" height="121.69513052125954" viewBox="0 0 369.89473684210526 88.78577569847523" class="css-1j8o68f">
  <defs id="SvgjsDefs1527"></defs>
  <g id="SvgjsG1528" featurekey="symbolFeature-0" transform="matrix(0.955334604533327,0,0,0.955334604533327,-1.6894902011189337,-3.3753513504919685)" fill="#3490de">
    <title xmlns="http://www.w3.org/2000/svg">Artboard 7 </title>
    <path xmlns="http://www.w3.org/2000/svg" d="M97.73,43l-.29-9.36a10.66,10.66,0,0,0-.1-1.27A7.12,7.12,0,0,0,97,31.08a6.85,6.85,0,0,0-5.32-4.44,1.17,1.17,0,0,0-1.36,1.3,1.44,1.44,0,0,0,.82,1.32,4.18,4.18,0,0,1,2.22,1.52A3.93,3.93,0,0,1,94,32.08a4,4,0,0,1,.12.72,8,8,0,0,1,0,.86L93.83,43c0,.76,0,1.53-.06,2.31a120.65,120.65,0,0,0-17.71-1.17c1-4,.91-11.08-.37-14.44,5.17-.15,9.74-.32,13.52-.5a1.32,1.32,0,0,0,1.13-1.47,1.28,1.28,0,0,0-1.13-1.28c-3.85-.19-8.52-.36-13.82-.51.05-.76.11-1.54.15-2.4a19.47,19.47,0,0,0-.12-3,18.85,18.85,0,0,0-2.09-6.65A19.66,19.66,0,0,0,60,3.94a20.61,20.61,0,0,0-9.68.37,20.39,20.39,0,0,0-8.78,5.3,21.12,21.12,0,0,0-3.19,4.26,20.37,20.37,0,0,0-2,5,22.32,22.32,0,0,0-.49,2.68l-.08,1.36c0,.46,0,.91,0,1.29q0,2.37,0,4.75v2.38a11.54,11.54,0,0,1-.15,1.89,9.54,9.54,0,0,1-1.29,3.41A9.71,9.71,0,0,1,21.76,40.2a10.07,10.07,0,0,1-4.62-4.88,9.65,9.65,0,0,1-.79-3.18c-.06-.49-.06-1.22-.08-1.85l-.05-1.93L16,21.11c-.18-4.55-.38-8.5-.61-11.65,0-.44-.68-.78-1.44-.74s-1.21.35-1.24.74c-.23,3.15-.44,7.1-.61,11.65l-.24,7.24-.05,1.93c0,.67-.05,1.26,0,2.1a14.1,14.1,0,0,0,1,4.74,14.82,14.82,0,0,0,28.36-2.94,17.08,17.08,0,0,0,.24-2.83V29q0-2.38,0-4.75c0-.42,0-.76,0-1.08l0-1a17.32,17.32,0,0,1,.35-2,15.25,15.25,0,0,1,1.39-3.7,16.12,16.12,0,0,1,2.3-3.18,15.54,15.54,0,0,1,6.42-4.09,16.13,16.13,0,0,1,7.3-.53,15.94,15.94,0,0,1,10.77,7.17,16.49,16.49,0,0,1,2.16,5.23,18.62,18.62,0,0,1,.39,2.51l.16,2.3-.59,0-10.68-.24-2.85-.05h-.72c-.26,0-.66,0-1,0a7.94,7.94,0,0,0-2,.49,7.83,7.83,0,0,0-4.91,6.55l0,.55v1.18l0,1.55,0,3.14-.07,6.43-.11,13.32,0,6.84c0,1.17,0,2.25,0,3.5l.09,1.94c.08.64.18,1.29.28,1.93a24,24,0,0,0,7.4,13.57A24.42,24.42,0,0,0,71.38,93a26.41,26.41,0,0,0,7.73-.43,24.79,24.79,0,0,0,7.12-2.8A23.38,23.38,0,0,0,92,85a24,24,0,0,0,6-13l.12-.87,0-.87.06-1.73,0-3.09C98.06,57.31,97.91,49.72,97.73,43ZM54.66,33a3.11,3.11,0,0,1,1.85-2.65,3.37,3.37,0,0,1,.81-.23l.47,0h.72l2.85-.05L72,29.82h.26C71,33.21,70.93,40.17,72,44.16a126,126,0,0,0-17.18,1.11ZM93.39,65.48l0,3.09L93.26,70l0,.7-.12.69a19.36,19.36,0,0,1-9.53,13.85A19.68,19.68,0,0,1,78,87.33a21.3,21.3,0,0,1-6,.28,19.14,19.14,0,0,1-10.9-5,19.82,19.82,0,0,1-3.76-4.8,20.08,20.08,0,0,1-2-5.72l-.23-1.5L55,69.05c0-1,0-2.27,0-3.4l0-6.84-.1-10.29C63.88,50,85.08,50,93.7,48.48,93.58,53.75,93.48,59.45,93.39,65.48Z">
    </path>
    <path xmlns="http://www.w3.org/2000/svg" d="M5.62,52.1l.39,0,.23,0a2.19,2.19,0,0,1,.81.39,2,2,0,0,1,.81,1.55L7.7,57.85c-.24,5.64-.35,12.09-.36,18.54v1.84c0,.3,0,.6.06.9a8.09,8.09,0,0,0,7.06,7,7.37,7.37,0,0,0,.87.06H16l1.16,0,2.27-.06L23.77,86c5.64-.23,10.47-.57,13.68-1,.23,0,.4-.7.39-1.47s-.18-1.25-.39-1.28c-3.21-.46-8-.81-13.68-1l-8.62-.29a2.77,2.77,0,0,1-2.3-2.41c0-.1,0-.2,0-.3V76.39q0-.82,0-1.64c3.91.46,9.52.79,15.89,1l5.49.14h.7c.26,0,.38,0,.88,0a6.09,6.09,0,0,0,5.55-4.56,5.82,5.82,0,0,0,.19-1.28V64.87l0-5.77v0h0a2.69,2.69,0,0,0-2.71-2.66c-10.7.11-20.52.51-26.36,1.2l-.08-1.8-.05-1a9.18,9.18,0,0,0-.13-1.31A6.05,6.05,0,0,0,9,49.16a5.75,5.75,0,0,0-2.37-.6H6l-.39,0-.76.08c-1,.1-1.9.21-2.7.33-.22,0-.4.68-.38,1.44s.18,1.21.38,1.24c.8.12,1.71.23,2.7.33ZM36.1,61.78c0,1,0,2.06,0,3.09V69.6c0,.12,0,.27,0,.26a.5.5,0,0,1,0,.15.74.74,0,0,1-.34.48.76.76,0,0,1-.29.1s-.32,0-.53,0h-.7l-5.49.14c-6.38.21-12,.54-15.91,1,0-3.84-.11-7.6-.23-11.12C17.93,61.25,26.54,61.63,36.1,61.78Z">
    </path>
    <circle xmlns="http://www.w3.org/2000/svg" cx="17.17" cy="93.11" r="3.36">
    </circle>
    <circle xmlns="http://www.w3.org/2000/svg" cx="30.86" cy="93.11" r="3.36">
    </circle>
  </g>
  <g id="SvgjsG1529" featurekey="nameFeature-0" transform="matrix(1.5939107311435314,0,0,1.5939107311435314,110.40608926885646,-2.9155562532360797)" fill="#3490de">
    <path d="M11.56 36.48 c0 1 0.76 1.4 3.04 1.48 l0 2.04 c-4.48 -0.12 -9.08 -0.12 -13.6 0 l0 -2.04 c2.32 -0.08 3.08 -0.48 3.08 -1.48 l0 -17.84 c0 -1 -0.76 -1.36 -3.08 -1.48 l0 -2 c4.52 0.12 9.12 0.12 13.6 0 l0 2 c-2.28 0.12 -3.04 0.48 -3.04 1.48 l0 17.84 z M51.440000000000005 36.48 c0 1 1.08 1.32 2.68 1.48 l0 2.04 c-4.16 -0.12 -8.28 -0.12 -12.44 0 l0 -2.04 c1.48 0.04 2.64 -0.48 2.64 -1.48 l0 -8.44 c0 -2.92 -0.08 -5.24 -1.64 -5.24 c-1.76 0 -3.32 3.04 -4 4.56 l0 9.12 c0 1 1.08 1.52 2.68 1.48 l0 2.04 c-4.16 -0.12 -8.28 -0.12 -12.44 0 l0 -2.04 c1.48 0.04 2.64 -0.48 2.64 -1.48 l0 -8.44 c0 -2.92 -0.08 -5.24 -1.6 -5.24 c-1.92 0 -3.36 3.04 -4.04 4.56 l0 9.12 c0 1 1.08 1.52 2.68 1.48 l0 2.04 c-4.16 -0.12 -8.28 -0.12 -12.44 0 l0 -2.04 c1.48 -0.16 2.64 -0.48 2.64 -1.48 l0 -10.12 c0 -1.64 -1.12 -1.88 -2.6 -1.6 l0 -2.04 c4.88 -1.08 7.04 -3.4 8.28 -3.4 c1.16 0 1.64 0.76 1.44 2.08 l-0.36 3.04 c0.84 -1.56 3.12 -4.84 7.76 -4.84 c2.8 0 4.28 1.96 5.04 4.84 c0.84 -1.52 3 -4.84 7.8 -4.84 c3.24 0 5.28 2.36 5.28 6.84 l0 10.04 z M74.84 33.8 c0 1.56 1.12 1.96 2.68 1.56 l0 2.24 c-4.64 1.2 -7.24 2.96 -8.24 2.96 c-1.2 0 -1.72 -0.68 -1.6 -2.04 l0.32 -2.84 c-0.76 2.36 -2.16 4.88 -6.12 4.88 c-3.4 0 -6.16 -1.72 -6.16 -5.16 c0 -4.2 3.4 -6.4 11.96 -8.12 l-0.08 -3.72 c-0.08 -1.92 -0.84 -2.2 -1.52 -2.2 c-4.56 0 -1 6.36 -6.52 6.36 c-1.96 0 -2.84 -1.04 -2.84 -2.6 c0 -3.08 4.28 -5.52 9.88 -5.52 c4.12 0 8.24 0.4 8.24 5.04 l0 9.16 z M64.72 37.44 c2 0 2.84 -3.28 2.96 -4.84 l0 -3.64 c-4.44 0.84 -4.88 4.28 -4.88 5.76 c0 1.56 0.72 2.72 1.92 2.72 z M98.88000000000001 19.68 c1.36 0 2.2 0.76 2.2 2.52 c0 0.92 0.12 2.56 -1.28 2.56 c-0.52 0 -0.96 -0.24 -1.8 -0.24 c-0.2 0 -0.16 0.16 -0.12 0.32 c0.08 0.36 0.48 0.96 0.48 2.2 c0 4.76 -4.12 6.88 -9.36 6.88 c-2.48 0 -3.76 -0.56 -4.28 -0.56 c-0.24 0 -0.48 0.16 -0.48 0.6 c0 0.6 0.4 1.04 2.16 1.28 l4 0.56 c6.08 0.84 9.24 2.04 9.24 6.16 c0 3.88 -4.8 6.72 -10.88 6.72 c-5.28 0 -9.44 -1.72 -9.44 -4.96 c0 -2.16 1.6 -3.36 3.72 -3.36 c1.24 0 2.76 0.52 2.76 2.04 c0 1.44 -0.4 1.44 -0.4 2.48 c0 0.8 0.84 1.88 3.52 1.88 c2.04 0 4.88 -0.8 4.88 -3.68 c0 -0.8 -0.44 -1.64 -2.24 -2 l-8.76 -1.72 c-2.28 -0.4 -3.48 -1.92 -3.48 -3.8 c0 -1.56 1.04 -3.12 3.4 -3.4 c-1.72 -0.76 -3.08 -2.84 -3.08 -5.12 c0 -4.76 4.16 -7.4 9.32 -7.4 c3.36 0 4.96 0.96 6.68 2.36 c0.52 -1.44 1.56 -2.32 3.24 -2.32 z M88.96000000000001 31.8 c2.04 0 2.4 -2.44 2.4 -4.84 c0 -2.16 -0.28 -5.24 -2.4 -5.24 c-2.16 0 -2.4 3.08 -2.4 5.24 c0 2.4 0.32 4.84 2.4 4.84 z M108.76000000000002 18.6 c-2.04 0 -3.68 -1.68 -3.68 -3.68 c0 -2.08 1.64 -3.68 3.68 -3.68 c2.08 0 3.6 1.6 3.6 3.68 c0 2 -1.52 3.68 -3.6 3.68 z M112.60000000000001 36.48 c0 1 1.08 1.32 2.68 1.48 l0 2.04 c-4.08 -0.12 -8.28 -0.12 -12.36 0 l0 -2.04 c1.4 -0.16 2.56 -0.48 2.56 -1.48 l0 -10.24 c0 -1.6 -1.12 -1.88 -2.6 -1.72 l0 -2 c5.24 -0.96 7.32 -3.08 8.76 -3.08 c0.76 0 1.2 0.52 1.2 1.24 c0 2.24 -0.24 3.88 -0.24 6.44 l0 9.36 z M139.56 36.48 c0 1 1.08 1.32 2.68 1.48 l0 2.04 c-4.2 -0.12 -8.28 -0.12 -12.48 0 l0 -2.04 c1.52 -0.04 2.64 -0.48 2.64 -1.48 l0 -9.44 c0 -2.48 0.12 -4.24 -1.68 -4.24 c-2.08 0 -3.96 3.48 -4.32 4.6 l0 9.08 c0 1 1.08 1.44 2.68 1.48 l0 2.04 c-4.16 -0.12 -8.28 -0.12 -12.44 0 l0 -2.04 c1.48 -0.16 2.64 -0.48 2.64 -1.48 l0 -10.12 c0 -1.64 -1.12 -1.88 -2.6 -1.6 l0 -2.04 c4.88 -1.08 7.04 -3.4 8.32 -3.4 c1.12 0 1.6 0.76 1.4 2.08 l-0.36 3 c1.08 -1.64 3.12 -4.8 7.08 -4.8 c2.92 0 6.44 1.28 6.44 7.04 l0 9.84 z M161.2 35.24 c0.76 0 0.84 0.76 0.28 1.64 c-1.64 2.4 -3.8 3.52 -7.08 3.52 c-5.84 0 -10.76 -3.64 -10.76 -10.6 c0 -6.84 5.24 -10.16 10.04 -10.16 c5.8 0 9.12 4.12 9.12 7.96 c0 2.12 -0.88 3.52 -3.12 3.52 l-9.08 0 c0.16 3.04 0.52 7.24 4.68 7.24 c2.24 0 3.48 -0.88 4.52 -2.52 c0.28 -0.48 0.4 -0.6 0.96 -0.6 l0.44 0 z M156.16 28.6 c0 -4.28 -0.56 -6.88 -2.56 -6.88 c-2.16 0 -2.96 2.56 -3 6.88 l5.56 0 z"></path>
  </g>
</svg>